<?xml version="1.0" encoding="UTF-8"?>
<svg width="28px" height="37px" viewBox="0 0 28 37" version="1.1" xmlns="http://www.w3.org/2000/svg" xmlns:xlink="http://www.w3.org/1999/xlink">
    <!-- Generator: Sketch 58 (84663) - https://sketch.com -->
    <title>30元</title>
    <desc>Created with Sketch.</desc>
    <g id="H5活动页" stroke="none" stroke-width="1" fill="none" fill-rule="evenodd">
        <g id="输入账号密码" transform="translate(-114.000000, -119.000000)" fill="#FCD673">
            <g id="编组-6" transform="translate(114.000000, 119.000000)">
                <path d="M14,0 C21.7319865,-1.42034288e-15 28,6.2680135 28,14 L28,23 C28,30.7319865 21.7319865,37 14,37 C6.2680135,37 9.46895252e-16,30.7319865 0,23 L0,14 C-9.46895252e-16,6.2680135 6.2680135,1.42034288e-15 14,0 Z M14,7 C12.3431458,7 11,8.34314575 11,10 L11,10 L11,26 C11,27.6568542 12.3431458,29 14,29 C15.6568542,29 17,27.6568542 17,26 L17,26 L17,10 C17,8.34314575 15.6568542,7 14,7 Z" id="形状结合备份"></path>
            </g>
        </g>
    </g>
</svg>