<?xml version="1.0" encoding="UTF-8"?>
<svg width="100px" height="80px" viewBox="0 0 100 80" version="1.1" xmlns="http://www.w3.org/2000/svg" xmlns:xlink="http://www.w3.org/1999/xlink">
    <!-- Generator: Sketch 58 (84663) - https://sketch.com -->
    <title>30元</title>
    <desc>Created with Sketch.</desc>
    <g id="H5活动页" stroke="none" stroke-width="1" fill="none" fill-rule="evenodd">
        <g id="优惠券查看" transform="translate(-20.000000, -122.000000)" fill="#FA5458">
            <g id="编组" transform="translate(20.000000, 122.000000)">
                <path d="M97.8564354,2.67276799e-05 C98.0747691,0.97973662 98.9226669,1.75148476 99.99918,1.9504096 L99.99918,77.0496431 C98.7453039,77.2813422 97.8015808,78.2901669 97.8015808,79.4995712 C97.8015808,79.6709191 97.8205243,79.8382408 97.8566094,79.9998966 L0,79.9995655 L0,73.7774141 C1.46623345,73.7774141 2.65485051,72.5835203 2.65485051,71.1107778 C2.65485051,69.6380352 1.46623345,68.4441414 0,68.4441414 L0,61.4219991 C1.46623345,61.4219991 2.65485051,60.2281054 2.65485051,58.7553628 C2.65485051,57.2826202 1.46623345,56.0887265 0,56.0887265 L0,49.0665842 C1.46623345,49.0665842 2.65485051,47.8726904 2.65485051,46.3999478 C2.65485051,44.9272053 1.46623345,43.7333115 0,43.7333115 L0,36.7111692 C1.46623345,36.7111692 2.65485051,35.5172754 2.65485051,34.0445329 C2.65485051,32.5717903 1.46623345,31.3778965 0,31.3778965 L0,24.3557542 C1.46623345,24.3557542 2.65485051,23.1618605 2.65485051,21.6891179 C2.65485051,20.2163753 1.46623345,19.0224816 0,19.0224816 L0,12.0003393 C1.46623345,12.0003393 2.65485051,10.8064455 2.65485051,9.33370294 C2.65485051,7.86096036 1.46623345,6.66706661 0,6.66706661 L0,0.000475801389 L97.8564354,2.67276799e-05 Z" id="形状结合"></path>
            </g>
        </g>
    </g>
</svg>