<?xml version="1.0" encoding="UTF-8"?>
<svg width="235px" height="80px" viewBox="0 0 235 80" version="1.1" xmlns="http://www.w3.org/2000/svg" xmlns:xlink="http://www.w3.org/1999/xlink">
    <!-- Generator: Sketch 58 (84663) - https://sketch.com -->
    <title>30元</title>
    <desc>Created with Sketch.</desc>
    <g id="H5活动页" stroke="none" stroke-width="1" fill="none" fill-rule="evenodd">
        <g id="优惠券查看" transform="translate(-120.000000, -122.000000)" fill="#FFFFFF">
            <g id="编组-2" transform="translate(120.000000, 122.000000)">
                <path d="M231,0 C233.209139,-4.05812251e-16 235,1.790861 235,4 L235,76 C235,78.209139 233.209139,80 231,80 L4,80 C3.63850453,80 3.28820923,79.9520464 2.9551283,79.8621533 C2.97670861,79.7435311 2.98728814,79.6227995 2.98728814,79.5 C2.98728814,78.1551691 1.71844414,77.0583511 0.127973357,77.0022526 C0.0440982709,76.6830189 4.24535229e-17,76.3466593 0,76 L0,4 C-9.1563951e-17,3.2523236 0.205136593,2.55255942 0.562197667,1.95391957 C1.68507768,1.77654038 2.58444988,1.0722485 2.88205437,0.160094709 C3.23567546,0.0554241581 3.61136523,7.13910495e-17 4,0 L231,0 Z" id="形状结合"></path>
            </g>
        </g>
    </g>
</svg>