<?xml version="1.0" encoding="UTF-8"?>
<svg width="40px" height="40px" viewBox="0 0 40 40" version="1.1" xmlns="http://www.w3.org/2000/svg" xmlns:xlink="http://www.w3.org/1999/xlink">
    <!-- Generator: Sketch 58 (84663) - https://sketch.com -->
    <title>30元</title>
    <desc>Created with Sketch.</desc>
    <g id="H5活动页" stroke="none" stroke-width="1" fill="none" fill-rule="evenodd">
        <g id="去查看" transform="translate(-299.000000, -183.000000)">
            <g id="编组-3" transform="translate(299.000000, 183.000000)">
                <g id="编组-6">
                    <circle id="椭圆形" fill="#FDFCF6" cx="20" cy="20" r="20"></circle>
                    <path d="M14.2494568,14.2494568 C14.5818741,13.9174529 15.1203908,13.9174529 15.4528081,14.2494568 L19.9994324,18.7949459 L24.5471919,14.2494568 C24.8451267,13.951453 25.316233,13.9162166 25.6551833,14.1665845 L25.7505432,14.2494568 C26.0825471,14.5818741 26.0825471,15.1203907 25.7505432,15.4528081 L21.2039189,19.9994324 L25.7505432,24.5471919 C26.0485469,24.8451267 26.0837834,25.316233 25.8334155,25.6551833 L25.7505432,25.7505432 C25.4181259,26.0825471 24.8796093,26.0825471 24.5471919,25.7505432 L19.9994324,21.2039189 L15.4528081,25.7505432 C15.1548733,26.0485469 14.683767,26.0837834 14.3448167,25.8334155 L14.2494568,25.7505432 C13.9174529,25.4181258 13.9174529,24.8796093 14.2494568,24.5471919 L18.7949459,19.9994324 L14.2494568,15.4528081 C13.951453,15.1548733 13.9162166,14.683767 14.1665845,14.3448167 L14.2494568,14.2494568 Z" id="路径" fill="#6C6D6A" fill-rule="nonzero"></path>
                </g>
            </g>
        </g>
    </g>
</svg>