<?xml version="1.0" encoding="UTF-8"?>
<svg width="315px" height="234px" viewBox="0 0 315 234" version="1.1" xmlns="http://www.w3.org/2000/svg" xmlns:xlink="http://www.w3.org/1999/xlink">
    <!-- Generator: Sketch 58 (84663) - https://sketch.com -->
    <title>30元</title>
    <desc>Created with Sketch.</desc>
    <defs>
        <rect id="path-1" x="61" y="0" width="194" height="36" rx="18"></rect>
        <filter x="-0.5%" y="-2.8%" width="101.0%" height="111.1%" filterUnits="objectBoundingBox" id="filter-2">
            <feOffset dx="0" dy="2" in="SourceAlpha" result="shadowOffsetOuter1"></feOffset>
            <feColorMatrix values="0 0 0 0 0.976470588   0 0 0 0 0.650980392   0 0 0 0 0.152941176  0 0 0 1 0" type="matrix" in="shadowOffsetOuter1"></feColorMatrix>
        </filter>
        <rect id="path-3" x="0" y="49" width="315" height="185" rx="12"></rect>
        <filter x="-2.9%" y="-4.9%" width="105.7%" height="109.7%" filterUnits="objectBoundingBox" id="filter-4">
            <feOffset dx="0" dy="0" in="SourceAlpha" result="shadowOffsetOuter1"></feOffset>
            <feGaussianBlur stdDeviation="3" in="shadowOffsetOuter1" result="shadowBlurOuter1"></feGaussianBlur>
            <feComposite in="shadowBlurOuter1" in2="SourceAlpha" operator="out" result="shadowBlurOuter1"></feComposite>
            <feColorMatrix values="0 0 0 0 0.947718524   0 0 0 0 0.399369704   0 0 0 0 0.00287132708  0 0 0 1 0" type="matrix" in="shadowBlurOuter1"></feColorMatrix>
        </filter>
        <path d="M3.58184872,0 L45.5625648,0 C47.5330848,-4.58127344e-06 49.1312702,1.59597265 49.1339946,3.56649078 C49.1439217,10.746674 49.1420255,16.4781822 49.1283058,20.7610153 C35.8892874,33.6265702 9.3492938,31.0318861 0.0211629399,20.7610153 C-0.00285114199,15.922867 -0.00642821943,10.1899719 0.0104317076,3.56232991 C0.0154537181,1.59344525 1.61295766,3.61679421e-16 3.58184872,0 Z" id="path-5"></path>
        <filter x="-3.1%" y="-5.1%" width="106.1%" height="120.4%" filterUnits="objectBoundingBox" id="filter-6">
            <feOffset dx="0" dy="3" in="SourceAlpha" result="shadowOffsetOuter1"></feOffset>
            <feColorMatrix values="0 0 0 0 0.635294118   0 0 0 0 0.105882353   0 0 0 0 0.0745098039  0 0 0 1 0" type="matrix" in="shadowOffsetOuter1"></feColorMatrix>
        </filter>
        <path d="M3.58184872,0 L45.5625648,0 C47.5330848,-4.58127344e-06 49.1312702,1.59597265 49.1339946,3.56649078 C49.1439217,10.746674 49.1420255,16.4781822 49.1283058,20.7610153 C35.8892874,33.6265702 9.3492938,31.0318861 0.0211629399,20.7610153 C-0.00285114199,15.922867 -0.00642821943,10.1899719 0.0104317076,3.56232991 C0.0154537181,1.59344525 1.61295766,3.61679421e-16 3.58184872,0 Z" id="path-7"></path>
        <filter x="-3.1%" y="-5.1%" width="106.1%" height="120.4%" filterUnits="objectBoundingBox" id="filter-8">
            <feOffset dx="0" dy="3" in="SourceAlpha" result="shadowOffsetOuter1"></feOffset>
            <feColorMatrix values="0 0 0 0 0.635294118   0 0 0 0 0.105882353   0 0 0 0 0.0745098039  0 0 0 1 0" type="matrix" in="shadowOffsetOuter1"></feColorMatrix>
        </filter>
        <path d="M3.58184872,0 L45.5625648,0 C47.5330848,-4.58127344e-06 49.1312702,1.59597265 49.1339946,3.56649078 C49.1439217,10.746674 49.1420255,16.4781822 49.1283058,20.7610153 C35.8892874,33.6265702 9.3492938,31.0318861 0.0211629399,20.7610153 C-0.00285114199,15.922867 -0.00642821943,10.1899719 0.0104317076,3.56232991 C0.0154537181,1.59344525 1.61295766,3.61679421e-16 3.58184872,0 Z" id="path-9"></path>
        <filter x="-3.1%" y="-5.1%" width="106.1%" height="120.4%" filterUnits="objectBoundingBox" id="filter-10">
            <feOffset dx="0" dy="3" in="SourceAlpha" result="shadowOffsetOuter1"></feOffset>
            <feColorMatrix values="0 0 0 0 0.635294118   0 0 0 0 0.105882353   0 0 0 0 0.0745098039  0 0 0 1 0" type="matrix" in="shadowOffsetOuter1"></feColorMatrix>
        </filter>
        <path d="M3.58184872,0 L45.5625648,0 C47.5330848,-4.58127344e-06 49.1312702,1.59597265 49.1339946,3.56649078 C49.1439217,10.746674 49.1420255,16.4781822 49.1283058,20.7610153 C35.8892874,33.6265702 9.3492938,31.0318861 0.0211629399,20.7610153 C-0.00285114199,15.922867 -0.00642821943,10.1899719 0.0104317076,3.56232991 C0.0154537181,1.59344525 1.61295766,3.61679421e-16 3.58184872,0 Z" id="path-11"></path>
        <filter x="-3.1%" y="-5.1%" width="106.1%" height="120.4%" filterUnits="objectBoundingBox" id="filter-12">
            <feOffset dx="0" dy="3" in="SourceAlpha" result="shadowOffsetOuter1"></feOffset>
            <feColorMatrix values="0 0 0 0 0.635294118   0 0 0 0 0.105882353   0 0 0 0 0.0745098039  0 0 0 1 0" type="matrix" in="shadowOffsetOuter1"></feColorMatrix>
        </filter>
        <path d="M3.58184872,0 L45.5625648,0 C47.5330848,-4.58127344e-06 49.1312702,1.59597265 49.1339946,3.56649078 C49.1439217,10.746674 49.1420255,16.4781822 49.1283058,20.7610153 C35.8892874,33.6265702 9.3492938,31.0318861 0.0211629399,20.7610153 C-0.00285114199,15.922867 -0.00642821943,10.1899719 0.0104317076,3.56232991 C0.0154537181,1.59344525 1.61295766,3.61679421e-16 3.58184872,0 Z" id="path-13"></path>
        <filter x="-3.1%" y="-5.1%" width="106.1%" height="120.4%" filterUnits="objectBoundingBox" id="filter-14">
            <feOffset dx="0" dy="3" in="SourceAlpha" result="shadowOffsetOuter1"></feOffset>
            <feColorMatrix values="0 0 0 0 0.635294118   0 0 0 0 0.105882353   0 0 0 0 0.0745098039  0 0 0 1 0" type="matrix" in="shadowOffsetOuter1"></feColorMatrix>
        </filter>
        <path d="M3.58184872,0 L45.5625648,0 C47.5330848,-4.58127344e-06 49.1312702,1.59597265 49.1339946,3.56649078 C49.1439217,10.746674 49.1420255,16.4781822 49.1283058,20.7610153 C35.8892874,33.6265702 9.3492938,31.0318861 0.0211629399,20.7610153 C-0.00285114199,15.922867 -0.00642821943,10.1899719 0.0104317076,3.56232991 C0.0154537181,1.59344525 1.61295766,3.61679421e-16 3.58184872,0 Z" id="path-15"></path>
        <filter x="-3.1%" y="-5.1%" width="106.1%" height="120.4%" filterUnits="objectBoundingBox" id="filter-16">
            <feOffset dx="0" dy="3" in="SourceAlpha" result="shadowOffsetOuter1"></feOffset>
            <feColorMatrix values="0 0 0 0 0.635294118   0 0 0 0 0.105882353   0 0 0 0 0.0745098039  0 0 0 1 0" type="matrix" in="shadowOffsetOuter1"></feColorMatrix>
        </filter>
        <path d="M3.58184872,0 L45.5625648,0 C47.5330848,-4.58127344e-06 49.1312702,1.59597265 49.1339946,3.56649078 C49.1439217,10.746674 49.1420255,16.4781822 49.1283058,20.7610153 C35.8892874,33.6265702 9.3492938,31.0318861 0.0211629399,20.7610153 C-0.00285114199,15.922867 -0.00642821943,10.1899719 0.0104317076,3.56232991 C0.0154537181,1.59344525 1.61295766,3.61679421e-16 3.58184872,0 Z" id="path-17"></path>
        <filter x="-3.1%" y="-5.1%" width="106.1%" height="120.4%" filterUnits="objectBoundingBox" id="filter-18">
            <feOffset dx="0" dy="3" in="SourceAlpha" result="shadowOffsetOuter1"></feOffset>
            <feColorMatrix values="0 0 0 0 0.635294118   0 0 0 0 0.105882353   0 0 0 0 0.0745098039  0 0 0 1 0" type="matrix" in="shadowOffsetOuter1"></feColorMatrix>
        </filter>
        <path d="M3.58184872,0 L45.5625648,0 C47.5330848,-4.58127344e-06 49.1312702,1.59597265 49.1339946,3.56649078 C49.1439217,10.746674 49.1420255,16.4781822 49.1283058,20.7610153 C35.8892874,33.6265702 9.3492938,31.0318861 0.0211629399,20.7610153 C-0.00285114199,15.922867 -0.00642821943,10.1899719 0.0104317076,3.56232991 C0.0154537181,1.59344525 1.61295766,3.61679421e-16 3.58184872,0 Z" id="path-19"></path>
        <filter x="-3.1%" y="-5.1%" width="106.1%" height="120.4%" filterUnits="objectBoundingBox" id="filter-20">
            <feOffset dx="0" dy="3" in="SourceAlpha" result="shadowOffsetOuter1"></feOffset>
            <feColorMatrix values="0 0 0 0 0.635294118   0 0 0 0 0.105882353   0 0 0 0 0.0745098039  0 0 0 1 0" type="matrix" in="shadowOffsetOuter1"></feColorMatrix>
        </filter>
        <circle id="path-21" cx="98.5" cy="31.5" r="2.5"></circle>
        <filter x="-10.0%" y="-30.0%" width="120.0%" height="140.0%" filterUnits="objectBoundingBox" id="filter-22">
            <feOffset dx="0" dy="-1" in="SourceAlpha" result="shadowOffsetOuter1"></feOffset>
            <feColorMatrix values="0 0 0 0 0.91372549   0 0 0 0 0.360784314   0 0 0 0 0.188235294  0 0 0 1 0" type="matrix" in="shadowOffsetOuter1"></feColorMatrix>
        </filter>
        <circle id="path-23" cx="217.5" cy="31.5" r="2.5"></circle>
        <filter x="-10.0%" y="-30.0%" width="120.0%" height="140.0%" filterUnits="objectBoundingBox" id="filter-24">
            <feOffset dx="0" dy="-1" in="SourceAlpha" result="shadowOffsetOuter1"></feOffset>
            <feColorMatrix values="0 0 0 0 0.91372549   0 0 0 0 0.360784314   0 0 0 0 0.188235294  0 0 0 1 0" type="matrix" in="shadowOffsetOuter1"></feColorMatrix>
        </filter>
    </defs>
    <g id="H5活动页" stroke="none" stroke-width="1" fill="none" fill-rule="evenodd">
        <g id="抽奖" transform="translate(-30.000000, -271.000000)">
            <g id="编组-3" transform="translate(30.000000, 271.000000)">
                <g id="编组-2">
                    <g id="矩形">
                        <use fill="black" fill-opacity="1" filter="url(#filter-2)" xlink:href="#path-1"></use>
                        <use fill="#FEDF7F" fill-rule="evenodd" xlink:href="#path-1"></use>
                    </g>
                    <rect id="矩形" fill="#FE7C1E" x="97" y="31" width="3" height="20" rx="1.5"></rect>
                    <rect id="矩形备份-2" fill="#FE7C1E" x="216" y="31" width="3" height="20" rx="1.5"></rect>
                    <g id="黄色底部">
                        <use fill="black" fill-opacity="1" filter="url(#filter-4)" xlink:href="#path-3"></use>
                        <rect stroke="#FE7C1E" stroke-width="4" stroke-linejoin="square" fill="#FEDF7F" fill-rule="evenodd" x="2" y="51" width="311" height="181" rx="12"></rect>
                    </g>
                    <g id="编组" transform="translate(20.000000, 69.000000)">
                        <rect id="矩形" fill="#CF3D37" x="0.0211629399" y="0.233981296" width="49.1071429" height="61.6071429" rx="3.57142857"></rect>
                        <g id="矩形备份">
                            <use fill="black" fill-opacity="1" filter="url(#filter-6)" xlink:href="#path-5"></use>
                            <use fill="#FF5453" fill-rule="evenodd" xlink:href="#path-5"></use>
                        </g>
                        <circle id="椭圆形" fill="#F9DA55" cx="24.5747344" cy="27.4661242" r="10.2678571"></circle>
                        <text id="¥" font-family="PingFangSC-Regular, PingFang SC" font-size="16.0714286" font-weight="normal" fill="#EB9832">
                            <tspan x="19.6640201" y="33.3054099">¥</tspan>
                        </text>
                    </g>
                    <g id="编组备份-4" transform="translate(20.000000, 151.000000)">
                        <rect id="矩形" fill="#CF3D37" x="0.0211629399" y="0.233981296" width="49.1071429" height="61.6071429" rx="3.57142857"></rect>
                        <g id="矩形备份">
                            <use fill="black" fill-opacity="1" filter="url(#filter-8)" xlink:href="#path-7"></use>
                            <use fill="#FF5453" fill-rule="evenodd" xlink:href="#path-7"></use>
                        </g>
                        <circle id="椭圆形" fill="#F9DA55" cx="24.5747344" cy="27.4661242" r="10.2678571"></circle>
                        <text id="¥" font-family="PingFangSC-Regular, PingFang SC" font-size="16.0714286" font-weight="normal" fill="#EB9832">
                            <tspan x="19.6640201" y="33.3054099">¥</tspan>
                        </text>
                    </g>
                    <g id="编组备份" transform="translate(95.000000, 70.000000)">
                        <rect id="矩形" fill="#CF3D37" x="0.0211629399" y="0.233981296" width="49.1071429" height="61.6071429" rx="3.57142857"></rect>
                        <g id="矩形备份">
                            <use fill="black" fill-opacity="1" filter="url(#filter-10)" xlink:href="#path-9"></use>
                            <use fill="#FF5453" fill-rule="evenodd" xlink:href="#path-9"></use>
                        </g>
                        <circle id="椭圆形" fill="#F9DA55" cx="24.5747344" cy="27.4661242" r="10.2678571"></circle>
                        <text id="¥" font-family="PingFangSC-Regular, PingFang SC" font-size="16.0714286" font-weight="normal" fill="#EB9832">
                            <tspan x="19.6640201" y="33.3054099">¥</tspan>
                        </text>
                    </g>
                    <g id="编组备份-5" transform="translate(95.000000, 152.000000)">
                        <rect id="矩形" fill="#CF3D37" x="0.0211629399" y="0.233981296" width="49.1071429" height="61.6071429" rx="3.57142857"></rect>
                        <g id="矩形备份">
                            <use fill="black" fill-opacity="1" filter="url(#filter-12)" xlink:href="#path-11"></use>
                            <use fill="#FF5453" fill-rule="evenodd" xlink:href="#path-11"></use>
                        </g>
                        <circle id="椭圆形" fill="#F9DA55" cx="24.5747344" cy="27.4661242" r="10.2678571"></circle>
                        <text id="¥" font-family="PingFangSC-Regular, PingFang SC" font-size="16.0714286" font-weight="normal" fill="#EB9832">
                            <tspan x="19.6640201" y="33.3054099">¥</tspan>
                        </text>
                    </g>
                    <g id="编组备份-2" transform="translate(170.000000, 70.000000)">
                        <rect id="矩形" fill="#CF3D37" x="0.0211629399" y="0.233981296" width="49.1071429" height="61.6071429" rx="3.57142857"></rect>
                        <g id="矩形备份">
                            <use fill="black" fill-opacity="1" filter="url(#filter-14)" xlink:href="#path-13"></use>
                            <use fill="#FF5453" fill-rule="evenodd" xlink:href="#path-13"></use>
                        </g>
                        <circle id="椭圆形" fill="#F9DA55" cx="24.5747344" cy="27.4661242" r="10.2678571"></circle>
                        <text id="¥" font-family="PingFangSC-Regular, PingFang SC" font-size="16.0714286" font-weight="normal" fill="#EB9832">
                            <tspan x="19.6640201" y="33.3054099">¥</tspan>
                        </text>
                    </g>
                    <g id="编组备份-6" transform="translate(170.000000, 152.000000)">
                        <rect id="矩形" fill="#CF3D37" x="0.0211629399" y="0.233981296" width="49.1071429" height="61.6071429" rx="3.57142857"></rect>
                        <g id="矩形备份">
                            <use fill="black" fill-opacity="1" filter="url(#filter-16)" xlink:href="#path-15"></use>
                            <use fill="#FF5453" fill-rule="evenodd" xlink:href="#path-15"></use>
                        </g>
                        <circle id="椭圆形" fill="#F9DA55" cx="24.5747344" cy="27.4661242" r="10.2678571"></circle>
                        <text id="¥" font-family="PingFangSC-Regular, PingFang SC" font-size="16.0714286" font-weight="normal" fill="#EB9832">
                            <tspan x="19.6640201" y="33.3054099">¥</tspan>
                        </text>
                    </g>
                    <g id="编组备份-3" transform="translate(245.000000, 70.000000)">
                        <rect id="矩形" fill="#CF3D37" x="0.0211629399" y="0.233981296" width="49.1071429" height="61.6071429" rx="3.57142857"></rect>
                        <g id="矩形备份">
                            <use fill="black" fill-opacity="1" filter="url(#filter-18)" xlink:href="#path-17"></use>
                            <use fill="#FF5453" fill-rule="evenodd" xlink:href="#path-17"></use>
                        </g>
                        <circle id="椭圆形" fill="#F9DA55" cx="24.5747344" cy="27.4661242" r="10.2678571"></circle>
                        <text id="¥" font-family="PingFangSC-Regular, PingFang SC" font-size="16.0714286" font-weight="normal" fill="#EB9832">
                            <tspan x="19.6640201" y="33.3054099">¥</tspan>
                        </text>
                    </g>
                    <g id="编组备份-7" transform="translate(245.000000, 152.000000)">
                        <rect id="矩形" fill="#CF3D37" x="0.0211629399" y="0.233981296" width="49.1071429" height="61.6071429" rx="3.57142857"></rect>
                        <g id="矩形备份">
                            <use fill="black" fill-opacity="1" filter="url(#filter-20)" xlink:href="#path-19"></use>
                            <use fill="#FF5453" fill-rule="evenodd" xlink:href="#path-19"></use>
                        </g>
                        <circle id="椭圆形" fill="#F9DA55" cx="24.5747344" cy="27.4661242" r="10.2678571"></circle>
                        <text id="¥" font-family="PingFangSC-Regular, PingFang SC" font-size="16.0714286" font-weight="normal" fill="#EB9832">
                            <tspan x="19.6640201" y="33.3054099">¥</tspan>
                        </text>
                    </g>
                    <text id="您有-1-次抽奖机会" font-family="PingFangSC-Regular, PingFang SC" font-size="16" font-weight="normal">
                        <tspan x="92.964" y="24" fill="#E7983F">您有 </tspan>
                        <tspan x="130.292" y="24" fill="#FD396B">1</tspan>
                        <tspan x="136.708" y="24" fill="#E7983F"> 次抽奖机会</tspan>
                    </text>
                    <g id="椭圆形">
                        <use fill="black" fill-opacity="1" filter="url(#filter-22)" xlink:href="#path-21"></use>
                        <use fill="#FE7C1E" fill-rule="evenodd" xlink:href="#path-21"></use>
                    </g>
                    <g id="椭圆形备份-7">
                        <use fill="black" fill-opacity="1" filter="url(#filter-24)" xlink:href="#path-23"></use>
                        <use fill="#FE7C1E" fill-rule="evenodd" xlink:href="#path-23"></use>
                    </g>
                </g>
            </g>
        </g>
    </g>
</svg>