<?xml version="1.0" encoding="UTF-8"?>
<svg width="74px" height="91px" viewBox="0 0 74 91" version="1.1" xmlns="http://www.w3.org/2000/svg" xmlns:xlink="http://www.w3.org/1999/xlink">
    <!-- Generator: Sketch 58 (84663) - https://sketch.com -->
    <title>人</title>
    <desc>Created with Sketch.</desc>
    <defs>
        <linearGradient x1="50%" y1="120.386906%" x2="58.6896658%" y2="61.2141392%" id="linearGradient-1">
            <stop stop-color="#F2CABA" offset="0%"></stop>
            <stop stop-color="#F4C8B7" offset="100%"></stop>
        </linearGradient>
        <path d="M1.47126876,3.01801248 C1.47126876,7.32600818 -2.07708485,15.7678671 2.5499847,17.9565274 C5.63469773,19.4156342 8.54097601,16.3559856 11.2688196,8.77758151 C11.0336915,3.2126852 9.52177034,0.43023705 6.73305608,0.43023705 C2.5499847,0.43023705 1.47126876,-1.28998322 1.47126876,3.01801248 Z" id="path-2"></path>
        <linearGradient x1="81.7442653%" y1="0%" x2="58.5144762%" y2="50%" id="linearGradient-4">
            <stop stop-color="#E2ABA5" offset="0%"></stop>
            <stop stop-color="#F2A397" offset="100%"></stop>
        </linearGradient>
        <path d="M11.1612994,0.233095664 C11.9799168,1.8189905 13.0825515,2.94857057 14.4692036,3.62183587 C15.8558556,4.29510118 16.8956686,4.79644275 17.5886427,5.12586058 L16.704388,8.55571266 C17.8031514,11.918146 18.0979029,14.1661764 17.5886427,15.2998038 C16.8247523,17.0002449 14.4692036,18.1299559 13.098213,19.6461132 C12.1842192,20.6568847 11.3047158,22.8767598 10.4597028,26.3057382 L1.4234418,26.3057382 L1.01427978,19.6461132 C-0.592336065,13.2397105 -0.0327480716,8.39962632 2.69304376,5.12586058 C5.41883559,1.85209485 8.24158748,0.221173209 11.1612994,0.233095664 Z" id="path-5"></path>
        <linearGradient x1="50%" y1="0%" x2="66.9771555%" y2="56.408967%" id="linearGradient-7">
            <stop stop-color="#251A19" offset="0%"></stop>
            <stop stop-color="#291A16" offset="100%"></stop>
        </linearGradient>
        <linearGradient x1="32.0080043%" y1="50%" x2="59.180596%" y2="33.4689142%" id="linearGradient-8">
            <stop stop-color="#EDF3FD" offset="0%"></stop>
            <stop stop-color="#D6E3FA" offset="100%"></stop>
        </linearGradient>
        <path d="M20.1411244,0.394003153 C24.4235563,1.52408935 27.8264848,3.58224695 30.3499099,6.56847596 C34.1350475,11.0478195 33.291533,24.524044 34.363634,32.5446429 C35.4357349,40.5652417 40.1006064,46.3953037 32.8951191,50.9216315 C25.6896318,55.4479593 5.31679377,54.4201123 3.65069971,50.9216315 C2.53997033,48.589311 1.35159559,40.2558009 0.0855754917,25.9211014 C0.0855754917,13.0193511 0.844141426,6.02469002 2.3612733,4.93711813 C3.87840517,3.84954625 6.40782356,2.25481745 9.94952848,0.152931725 C9.87011608,0.472746432 10.6846407,0.791115082 12.3931024,1.10803767 C14.101564,1.42496027 16.684238,1.18694876 20.1411244,0.394003153 Z" id="path-9"></path>
        <linearGradient x1="49.050693%" y1="57.7816012%" x2="53.1420269%" y2="23.7180568%" id="linearGradient-11">
            <stop stop-color="#CFDDF3" offset="0%"></stop>
            <stop stop-color="#A1B8E3" offset="100%"></stop>
        </linearGradient>
        <linearGradient x1="86.2225509%" y1="53.8112001%" x2="56.9641755%" y2="47.7515615%" id="linearGradient-12">
            <stop stop-color="#CFDDF3" offset="0%"></stop>
            <stop stop-color="#A1B8E3" offset="100%"></stop>
        </linearGradient>
        <linearGradient x1="50%" y1="166.803254%" x2="50%" y2="20.389144%" id="linearGradient-13">
            <stop stop-color="#F0C6BD" offset="0%"></stop>
            <stop stop-color="#F1C8B9" offset="100%"></stop>
        </linearGradient>
        <path d="M11.0752755,32.936073 L16.9337084,37.2512123 C23.3617407,27.9138854 26.8594955,22.6060731 27.426973,21.3277752 C28.2781892,19.4103285 27.426973,16.1925402 27.426973,15.121005 C27.426973,14.0494698 28.0596385,11.6857269 28.9791076,10.992235 C29.8985768,10.298743 30.0067053,10.6552709 30.5643986,10.6552709 C31.122092,10.6552709 35.9036735,4.75000095 36.4663487,3.99854288 C37.0290238,3.24708481 37.790333,2.87744422 38.3613244,3.31690772 C38.9323158,3.75637122 38.6864296,4.48827234 38.2686297,5.08562765 C37.8508298,5.68298295 35.5055702,9.03518028 35.5055702,9.72053842 C35.5055702,10.4058966 37.8007066,11.8646697 38.3923497,12.4672756 C38.9839927,13.0698815 39.8222958,14.7752786 38.7195752,16.6651652 C37.6168546,18.5550518 33.9516674,21.5654226 33.9516674,22.4000177 C33.9516674,23.2346127 27.8610381,35.8592775 25.6514831,40.9648067 C23.441928,46.0703358 21.3581231,49.5176378 16.9337084,48.087156 C13.9840986,47.1335015 9.81583857,44.2130082 4.42892829,39.3256761 C5.4817673,36.8350963 6.51852768,35.197734 7.53920943,34.4135891 C8.55989118,33.6294443 9.73857987,33.1369389 11.0752755,32.936073 Z" id="path-14"></path>
        <linearGradient x1="22.1069515%" y1="11.2137508%" x2="22.1069515%" y2="79.6109734%" id="linearGradient-16">
            <stop stop-color="#D6E3FA" offset="0%"></stop>
            <stop stop-color="#E3EDFE" offset="100%"></stop>
        </linearGradient>
    </defs>
    <g id="H5活动页" stroke="none" stroke-width="1" fill="none" fill-rule="evenodd">
        <g id="输入账号密码" transform="translate(-14.000000, -147.000000)">
            <g id="编组-7" transform="translate(14.000000, 147.000000)">
                <g id="person-4" transform="translate(1.000000, 1.000000)">
                    <g id="elbow" transform="translate(0.241071, 56.651786)">
                        <mask id="mask-3" fill="white">
                            <use xlink:href="#path-2"></use>
                        </mask>
                        <use id="Mask" fill="url(#linearGradient-1)" xlink:href="#path-2"></use>
                        <path d="M1.20492459,4.94707306 C1.57806407,5.7053351 6.66288009,9.71650134 7.50369217,10.6649946 C8.34450424,11.6134879 8.53673266,14.0926519 9.01955052,13.8365138 C9.34142909,13.665755 9.34142909,11.1563005 9.01955052,6.30815009 C3.56104024,4.89525738 0.956164935,4.44156504 1.20492459,4.94707306 Z" id="Path-7" fill="#E39A94" style="mix-blend-mode: multiply;" opacity="0.5" mask="url(#mask-3)"></path>
                    </g>
                    <g id="face" transform="translate(16.875000, 11.330357)">
                        <mask id="mask-6" fill="white">
                            <use xlink:href="#path-5"></use>
                        </mask>
                        <use id="Mask" fill="url(#linearGradient-4)" xlink:href="#path-5"></use>
                        <path d="M14.2242072,18.7406743 C11.943233,18.7406743 8.38502059,16.7209763 7.70017566,16.0309394 C7.01533072,15.3409024 13.4024948,22.8058552 12.8693403,23.9947725 C12.4487286,24.932723 10.9471277,25.2196524 11.89416,25.2196524 C15.3096755,25.2196524 16.5051813,18.7406743 14.2242072,18.7406743 Z" id="Path-3" fill="#EAA79A" style="mix-blend-mode: multiply;" opacity="0.5" mask="url(#mask-6)"></path>
                    </g>
                    <path d="M17.8896926,30.6955226 C9.92242654,23.2487146 3.61371742,16.8934626 9.054552,8.03792079 C14.4953866,-0.817621064 27.1549917,-3.79453269 29.5213193,6.97014541 C29.5213193,10.0493176 28.3845462,12.4113773 26.111,14.0563243 C25.6856738,14.921839 26.0336711,15.8136604 27.1549917,16.7317884 C28.2763123,17.6499164 28.2763123,18.4883632 27.1549917,19.2471287 C24.9407188,17.8229296 23.544462,18.0591382 22.966221,19.9557543 C22.0988596,22.8006786 25.3004763,23.8190232 25.3004763,24.5311138 C26.0361533,26.2757338 25.6448299,27.9459773 24.1265062,29.5418443 C23.3491974,30.3109631 21.2702595,30.6955226 17.8896926,30.6955226 Z" id="hair" fill="url(#linearGradient-7)"></path>
                    <path d="M9.67175125,40.7410714 C3.98589614,50.7154232 0.799962038,56.8000147 0.113948955,58.9948458 C-0.572064127,61.189677 2.61386997,62.9217404 9.67175125,64.191036 L14.0896406,45.3708455 L9.67175125,40.7410714 Z" id="sleeve" fill="url(#linearGradient-8)"></path>
                    <g id="shirt" transform="translate(7.955357, 35.196429)">
                        <mask id="mask-10" fill="white">
                            <use xlink:href="#path-9"></use>
                        </mask>
                        <use id="Mask" fill="#D6E3FA" xlink:href="#path-9"></use>
                        <path d="M25.4763719,15.7029881 C27.7862871,26.50008 29.636233,32.9105055 31.0262095,34.9342647 C33.1111743,37.9699035 34.4668386,47.1559102 36.1356848,48.251252 C37.8045311,49.3465938 40.2018829,36.8157407 39.003207,32.5253871 C38.2040897,29.6651514 36.0035329,24.732139 32.4015366,17.7263499 L25.4763719,15.7029881 Z" id="Path-4" fill="url(#linearGradient-11)" opacity="0.5" mask="url(#mask-10)"></path>
                        <path d="M11.4752777,1.26238719 C13.0173432,2.28520678 17.0354095,2.83886791 20.4127763,2.83886791 C23.790143,2.83886791 24.8464599,2.87463386 26.4624716,2.38279191 C28.0784834,1.89094995 27.4518846,1.26238719 26.4624716,1.26238719 C25.4730586,1.26238719 22.4041875,0.54105193 20.7524163,0.54105193 C19.1006452,0.54105193 9.93321222,0.239567608 11.4752777,1.26238719 Z" id="Path-11" fill="url(#linearGradient-12)" opacity="0.5" mask="url(#mask-10)"></path>
                    </g>
                    <path d="M17.6127945,35.5902547 C17.4803103,33.9387987 17.4140682,32.8467471 17.4140682,32.3140998 C17.4140682,31.515129 24.0674556,32.6433973 28.8554219,33.0911893 C29.3749562,35.0842293 29.282957,35.2160856 29.282957,35.5902547 C29.282957,35.7772896 28.0872356,37.3806034 21.6540423,36.8607726 C20.0884643,36.7342669 18.7413817,36.3107609 17.6127945,35.5902547 Z" id="colar" fill="#E1ECFF"></path>
                    <g id="hand" transform="translate(54.802847, 37.333626) rotate(-26.000000) translate(-54.802847, -37.333626) translate(28.802847, 11.333626)">
                        <path d="M12.7266851,39.3398121 C16.254897,39.3398121 21.1331598,38.0565854 21.1331598,36.3923345 C21.1331598,34.7280836 17.1192694,34.1553692 13.5910574,34.1553692 C10.0628455,34.1553692 8.51805267,35.8189234 8.08183658,36.9762633 C8.29701618,37.9606633 9.19847314,39.3398121 12.7266851,39.3398121 Z" id="Oval" fill="#A1B8E3" transform="translate(14.607498, 36.747591) rotate(-40.000000) translate(-14.607498, -36.747591) "></path>
                        <g id="Path-2" transform="translate(7.714286, 0.000000)">
                            <mask id="mask-15" fill="white">
                                <use xlink:href="#path-14"></use>
                            </mask>
                            <use id="Mask" fill="url(#linearGradient-13)" transform="translate(21.843461, 25.770503) rotate(12.000000) translate(-21.843461, -25.770503) " xlink:href="#path-14"></use>
                            <path d="M11.4825686,32.1711186 C8.19010337,36.7528744 6.45329915,39.9098542 6.27215597,41.6420579 C6.0910128,43.3742616 5.03623794,42.4855508 3.1078314,38.9759256 C4.20973501,36.8619497 5.22404057,35.4284684 6.15074809,34.6754817 C7.07745561,33.922495 8.85472912,33.0877073 11.4825686,32.1711186 Z" fill="#E1A097" style="mix-blend-mode: multiply;" opacity="0.5" mask="url(#mask-15)"></path>
                            <path d="M14.6137661,35.7395969 C14.8780493,36.0620081 15.4047509,36.6200704 15.5925378,37.7036144" id="Path-9" stroke="#E2A294" stroke-width="0.5" stroke-linecap="round" mask="url(#mask-15)"></path>
                        </g>
                        <path d="M9.71248604,41.0689152 C12.0556451,37.9931694 15.3246855,33.7819105 19.420709,32.3049312 C11.7363155,23.3628994 9.39556164,20.3796653 6.97365559,17.5806912 C4.55174954,14.7817171 -2.43043413,22.032063 1.32419648,29.1637989 C5.07882708,36.2955349 8.43849201,39.5597441 9.71248604,41.0689152 Z" id="Path-85" fill="url(#linearGradient-16)"></path>
                    </g>
                </g>
            </g>
        </g>
    </g>
</svg>